<?xml version="1.0" encoding="UTF-8" standalone="no"?>
<!-- Created with Inkscape (http://www.inkscape.org/) -->

<svg
   xmlns:dc="http://purl.org/dc/elements/1.1/"
   xmlns:cc="http://creativecommons.org/ns#"
   xmlns:rdf="http://www.w3.org/1999/02/22-rdf-syntax-ns#"
   xmlns:svg="http://www.w3.org/2000/svg"
   xmlns="http://www.w3.org/2000/svg"
   xmlns:sodipodi="http://sodipodi.sourceforge.net/DTD/sodipodi-0.dtd"
   xmlns:inkscape="http://www.inkscape.org/namespaces/inkscape"
   width="100"
   height="100"
   viewBox="0 0 26.458332 26.458334"
   version="1.1"
   id="svg8"
   inkscape:version="0.92.1 r15371"
   sodipodi:docname="drone_marker.svg">
  <defs
     id="defs2" />
  <sodipodi:namedview
     id="base"
     pagecolor="#ffffff"
     bordercolor="#666666"
     borderopacity="1.0"
     inkscape:pageopacity="0.0"
     inkscape:pageshadow="2"
     inkscape:zoom="2.8284271"
     inkscape:cx="75.757129"
     inkscape:cy="69.54415"
     inkscape:document-units="mm"
     inkscape:current-layer="layer1"
     showgrid="false"
     inkscape:window-width="3840"
     inkscape:window-height="2110"
     inkscape:window-x="0"
     inkscape:window-y="25"
     inkscape:window-maximized="1"
     units="px" />
  <metadata
     id="metadata5">
    <rdf:RDF>
      <cc:Work
         rdf:about="">
        <dc:format>image/svg+xml</dc:format>
        <dc:type
           rdf:resource="http://purl.org/dc/dcmitype/StillImage" />
        <dc:title />
      </cc:Work>
    </rdf:RDF>
  </metadata>
  <g
     inkscape:label="Layer 1"
     inkscape:groupmode="layer"
     id="layer1"
     transform="translate(17.422959,-287.262)">
    <path
       style="fill:#fdb237;fill-opacity:0;stroke:#fffff3;stroke-width:0.09544748;stroke-miterlimit:4;stroke-dasharray:none;stroke-opacity:1"
       d="m 208.20753,376.01466 c -28.1169,-2.79074 -53.41246,-17.91379 -69.05333,-41.2838 -8.52893,-12.74362 -13.6022,-26.70669 -15.46089,-42.55268 -0.49956,-4.25897 -0.4219,-16.07918 0.1344,-20.45559 3.70637,-29.158 19.50077,-53.88837 44.23701,-69.26493 15.82972,-9.84008 36.36517,-14.99252 54.6745,-13.71808 23.57685,1.64109 44.3426,11.01306 60.74479,27.41525 23.3848,23.38481 32.70163,56.64543 24.86119,88.75326 -7.3313,30.02278 -29.44123,54.7952 -58.5844,65.63914 -8.06495,3.00091 -16.28571,4.82885 -25.12754,5.58727 -4.03482,0.34609 -12.34207,0.28548 -16.42573,-0.11984 z"
       id="path4487"
       inkscape:connector-curvature="0"
       transform="scale(0.26458333)" />
    <path
       style="fill:#fdb237;fill-opacity:0;stroke:#fffff3;stroke-width:0.09544748;stroke-miterlimit:4;stroke-dasharray:none;stroke-opacity:1"
       d="m 210.3396,375.99226 c -16.42893,-1.09758 -33.92791,-7.469 -47.72971,-17.3785 -6.31276,-4.53248 -13.91769,-11.7276 -18.46339,-17.46843 -8.62024,-10.88665 -14.42899,-22.50849 -17.73418,-35.48161 -2.16443,-8.49554 -2.82037,-13.75735 -2.81741,-22.60062 0.002,-7.35554 0.24486,-10.72291 1.14536,-15.91145 4.75058,-27.37215 20.63593,-50.6883 44.30935,-65.03621 10.39863,-6.30238 23.49564,-10.82149 36.52509,-12.60296 17.43297,-2.38356 36.77769,0.91644 53.18206,9.07228 9.52282,4.7345 17.5552,10.63992 25.38986,18.66669 5.54491,5.68087 9.53334,10.82343 13.4369,17.32511 12.76685,21.2642 16.47471,46.28123 10.46123,70.58208 -5.25939,21.25347 -18.33653,40.48274 -36.29331,53.36744 -4.19965,3.01342 -7.64662,5.10637 -12.29318,7.46428 -10.21275,5.18246 -20.42703,8.28678 -31.69354,9.63228 -3.99962,0.47766 -12.96231,0.66778 -17.42513,0.36962 z"
       id="path4489"
       inkscape:connector-curvature="0"
       transform="scale(0.26458333)" />
    <path
       style="fill:#fdb237;fill-opacity:0;stroke:#fffff3;stroke-width:0.09544748;stroke-miterlimit:4;stroke-dasharray:none;stroke-opacity:1"
       d="m 210.59214,375.85103 c -11.91788,-1.15596 -20.94874,-3.44414 -30.93885,-7.83908 -17.60847,-7.74647 -32.6984,-21.0118 -42.59616,-37.44566 -7.0723,-11.74255 -11.8195,-26.06546 -12.97658,-39.15195 -0.406,-4.59189 -0.17551,-17.94805 0.36859,-21.3585 1.73523,-10.87647 4.3976,-19.44684 8.8649,-28.53681 4.73274,-9.63007 9.57753,-16.54421 16.79244,-23.965 12.58192,-12.94096 27.09162,-21.27909 44.8283,-25.761 7.7783,-1.96552 14.0356,-2.75226 21.97081,-2.76243 9.32286,-0.0119 17.32024,1.13221 26.51651,3.79361 9.21061,2.66555 19.93413,7.84423 27.46523,13.26369 15.06215,10.8389 26.73283,25.71124 33.35247,42.5022 9.19387,23.32057 8.47451,49.49459 -1.991,72.44195 -13.65328,29.9371 -42.21011,50.67675 -74.98914,54.46155 -2.31464,0.26726 -14.83011,0.53565 -16.66752,0.35743 z"
       id="path4491"
       inkscape:connector-curvature="0"
       transform="scale(0.26458333)" />
    <ellipse
       style="fill:#fdb237;fill-opacity:0;stroke:#fffff3;stroke-width:0.1;stroke-miterlimit:4;stroke-dasharray:none;stroke-opacity:1"
       id="path4493"
       cx="42.829945"
       cy="120.83597"
       rx="14.232102"
       ry="12.127355" />
    <ellipse
       style="fill:#fdb237;fill-opacity:0;stroke:#fffff3;stroke-width:0.1;stroke-miterlimit:4;stroke-dasharray:none;stroke-opacity:1"
       id="path4498"
       cx="41.32655"
       cy="121.67119"
       rx="21.080883"
       ry="9.4880686" />
    <circle
       style="fill:none;fill-opacity:1;stroke:#969696;stroke-width:2.22143483;stroke-miterlimit:4;stroke-dasharray:none;stroke-opacity:0.47058824"
       id="path4496"
       cx="-4.1937923"
       cy="300.49118"
       r="4.6392827" />
  </g>
</svg>
